<svg width="574" height="119" viewBox="0 0 574 119" fill="none" xmlns="http://www.w3.org/2000/svg">
<path d="M12.196 107.52L9.82 101.208C9.628 100.72 9.432 100.1 9.232 99.348C9.144 99.724 9.048 100.072 8.944 100.392C8.84 100.704 8.744 100.98 8.656 101.22L6.28 107.52H12.196ZM17.512 114H15.34C15.092 114 14.892 113.94 14.74 113.82C14.588 113.692 14.472 113.536 14.392 113.352L12.952 109.536H5.512L4.072 113.352C4.008 113.512 3.896 113.66 3.736 113.796C3.576 113.932 3.376 114 3.136 114H0.964L7.816 96.72H10.66L17.512 114ZM33.6843 111.732C34.3483 111.732 34.9403 111.62 35.4603 111.396C35.9883 111.172 36.4323 110.86 36.7923 110.46C37.1603 110.06 37.4403 109.58 37.6323 109.02C37.8243 108.452 37.9202 107.824 37.9202 107.136V96.72H40.7163V107.136C40.7163 108.152 40.5523 109.092 40.2243 109.956C39.9043 110.82 39.4403 111.568 38.8323 112.2C38.2243 112.824 37.4843 113.316 36.6123 113.676C35.7483 114.028 34.7723 114.204 33.6843 114.204C32.5963 114.204 31.6163 114.028 30.7443 113.676C29.8802 113.316 29.1442 112.824 28.5362 112.2C27.9282 111.568 27.4602 110.82 27.1322 109.956C26.8122 109.092 26.6522 108.152 26.6522 107.136V96.72H29.4603V107.124C29.4603 107.812 29.5563 108.44 29.7483 109.008C29.9403 109.568 30.2163 110.052 30.5763 110.46C30.9363 110.86 31.3763 111.172 31.8963 111.396C32.4243 111.62 33.0203 111.732 33.6843 111.732ZM47.2474 103.38C47.5114 103.108 47.7834 102.864 48.0634 102.648C48.3514 102.424 48.6554 102.232 48.9754 102.072C49.2954 101.912 49.6354 101.788 49.9954 101.7C50.3554 101.612 50.7474 101.568 51.1714 101.568C51.8434 101.568 52.4314 101.68 52.9354 101.904C53.4474 102.128 53.8754 102.444 54.2194 102.852C54.5714 103.26 54.8354 103.752 55.0114 104.328C55.1874 104.896 55.2754 105.524 55.2754 106.212V114H52.7074V106.212C52.7074 105.388 52.5154 104.748 52.1314 104.292C51.7554 103.836 51.1794 103.608 50.4034 103.608C49.8274 103.608 49.2914 103.74 48.7954 104.004C48.3074 104.268 47.8474 104.628 47.4154 105.084V114H44.8354V101.76H46.3954C46.7474 101.76 46.9714 101.924 47.0674 102.252L47.2474 103.38ZM62.0566 101.76V114H59.4766V101.76H62.0566ZM62.4886 98.064C62.4886 98.296 62.4406 98.516 62.3446 98.724C62.2566 98.932 62.1326 99.116 61.9726 99.276C61.8126 99.428 61.6246 99.552 61.4086 99.648C61.2006 99.736 60.9766 99.78 60.7366 99.78C60.5046 99.78 60.2846 99.736 60.0766 99.648C59.8766 99.552 59.7006 99.428 59.5486 99.276C59.3966 99.116 59.2726 98.932 59.1766 98.724C59.0886 98.516 59.0446 98.296 59.0446 98.064C59.0446 97.824 59.0886 97.6 59.1766 97.392C59.2726 97.184 59.3966 97.004 59.5486 96.852C59.7006 96.692 59.8766 96.568 60.0766 96.48C60.2846 96.384 60.5046 96.336 60.7366 96.336C60.9766 96.336 61.2006 96.384 61.4086 96.48C61.6246 96.568 61.8126 96.692 61.9726 96.852C62.1326 97.004 62.2566 97.184 62.3446 97.392C62.4406 97.6 62.4886 97.824 62.4886 98.064ZM70.3023 114.192C69.2863 114.192 68.5023 113.908 67.9503 113.34C67.4063 112.764 67.1343 111.956 67.1343 110.916V103.788H65.7903C65.6463 103.788 65.5223 103.744 65.4183 103.656C65.3143 103.56 65.2623 103.42 65.2623 103.236V102.192L67.2423 101.904L67.8063 98.364C67.8463 98.228 67.9143 98.12 68.0103 98.04C68.1063 97.952 68.2343 97.908 68.3943 97.908H69.7143V101.928H73.1103V103.788H69.7143V110.736C69.7143 111.176 69.8223 111.512 70.0383 111.744C70.2543 111.976 70.5423 112.092 70.9023 112.092C71.1023 112.092 71.2743 112.068 71.4183 112.02C71.5623 111.964 71.6863 111.908 71.7903 111.852C71.8943 111.788 71.9823 111.732 72.0543 111.684C72.1343 111.628 72.2103 111.6 72.2823 111.6C72.4263 111.6 72.5423 111.68 72.6303 111.84L73.3983 113.1C72.9983 113.452 72.5263 113.724 71.9823 113.916C71.4383 114.1 70.8783 114.192 70.3023 114.192ZM88.5724 101.568C89.4764 101.568 90.2924 101.716 91.0204 102.012C91.7564 102.308 92.3804 102.728 92.8924 103.272C93.4124 103.816 93.8124 104.476 94.0924 105.252C94.3724 106.028 94.5124 106.9 94.5124 107.868C94.5124 108.836 94.3724 109.708 94.0924 110.484C93.8124 111.26 93.4124 111.924 92.8924 112.476C92.3804 113.02 91.7564 113.44 91.0204 113.736C90.2924 114.032 89.4764 114.18 88.5724 114.18C87.6604 114.18 86.8364 114.032 86.1004 113.736C85.3724 113.44 84.7484 113.02 84.2284 112.476C83.7084 111.924 83.3084 111.26 83.0284 110.484C82.7484 109.708 82.6084 108.836 82.6084 107.868C82.6084 106.9 82.7484 106.028 83.0284 105.252C83.3084 104.476 83.7084 103.816 84.2284 103.272C84.7484 102.728 85.3724 102.308 86.1004 102.012C86.8364 101.716 87.6604 101.568 88.5724 101.568ZM88.5724 112.164C89.6764 112.164 90.4964 111.796 91.0324 111.06C91.5764 110.316 91.8484 109.256 91.8484 107.88C91.8484 106.504 91.5764 105.444 91.0324 104.7C90.4964 103.948 89.6764 103.572 88.5724 103.572C87.4524 103.572 86.6204 103.948 86.0764 104.7C85.5324 105.444 85.2604 106.504 85.2604 107.88C85.2604 109.256 85.5324 110.316 86.0764 111.06C86.6204 111.796 87.4524 112.164 88.5724 112.164ZM98.6181 114V103.812L97.4181 103.644C97.2181 103.604 97.0541 103.532 96.9261 103.428C96.8061 103.324 96.7461 103.176 96.7461 102.984V101.928H98.6181V100.896C98.6181 100.2 98.7181 99.576 98.9181 99.024C99.1261 98.472 99.4181 98.004 99.7941 97.62C100.178 97.236 100.642 96.944 101.186 96.744C101.73 96.536 102.342 96.432 103.022 96.432C103.302 96.432 103.566 96.452 103.814 96.492C104.07 96.532 104.318 96.592 104.558 96.672L104.51 97.968C104.494 98.184 104.386 98.312 104.186 98.352C103.994 98.392 103.75 98.412 103.454 98.412C103.094 98.412 102.77 98.456 102.482 98.544C102.194 98.624 101.946 98.764 101.738 98.964C101.538 99.164 101.382 99.428 101.27 99.756C101.166 100.084 101.114 100.492 101.114 100.98V101.928H104.462V103.788H101.198V114H98.6181ZM123.505 99.672C123.417 99.816 123.325 99.924 123.229 99.996C123.133 100.06 123.013 100.092 122.869 100.092C122.717 100.092 122.545 100.028 122.353 99.9C122.169 99.772 121.937 99.632 121.657 99.48C121.385 99.32 121.061 99.176 120.685 99.048C120.309 98.912 119.861 98.844 119.341 98.844C118.861 98.844 118.437 98.904 118.069 99.024C117.709 99.144 117.405 99.312 117.157 99.528C116.909 99.744 116.721 100 116.593 100.296C116.473 100.584 116.413 100.9 116.413 101.244C116.413 101.684 116.529 102.052 116.761 102.348C116.993 102.636 117.297 102.884 117.673 103.092C118.057 103.3 118.493 103.484 118.981 103.644C119.469 103.796 119.965 103.96 120.469 104.136C120.981 104.312 121.481 104.512 121.969 104.736C122.457 104.96 122.889 105.244 123.265 105.588C123.649 105.932 123.957 106.352 124.189 106.848C124.421 107.344 124.537 107.948 124.537 108.66C124.537 109.428 124.405 110.148 124.141 110.82C123.877 111.492 123.493 112.08 122.989 112.584C122.493 113.08 121.877 113.472 121.141 113.76C120.413 114.048 119.581 114.192 118.645 114.192C118.093 114.192 117.553 114.136 117.025 114.024C116.505 113.92 116.005 113.772 115.525 113.58C115.053 113.38 114.609 113.14 114.193 112.86C113.777 112.58 113.405 112.268 113.077 111.924L113.893 110.58C113.965 110.468 114.057 110.38 114.169 110.316C114.281 110.252 114.405 110.22 114.541 110.22C114.725 110.22 114.929 110.308 115.153 110.484C115.377 110.652 115.645 110.84 115.957 111.048C116.277 111.248 116.661 111.436 117.109 111.612C117.557 111.78 118.093 111.864 118.717 111.864C119.733 111.864 120.517 111.616 121.069 111.12C121.629 110.624 121.909 109.94 121.909 109.068C121.909 108.58 121.793 108.184 121.561 107.88C121.329 107.568 121.021 107.308 120.637 107.1C120.261 106.892 119.829 106.716 119.341 106.572C118.853 106.428 118.357 106.276 117.853 106.116C117.349 105.948 116.853 105.756 116.365 105.54C115.877 105.316 115.441 105.028 115.057 104.676C114.681 104.316 114.377 103.876 114.145 103.356C113.913 102.828 113.797 102.172 113.797 101.388C113.797 100.764 113.917 100.16 114.157 99.576C114.405 98.992 114.761 98.476 115.225 98.028C115.697 97.572 116.277 97.208 116.965 96.936C117.653 96.664 118.437 96.528 119.317 96.528C120.309 96.528 121.217 96.684 122.041 96.996C122.873 97.308 123.589 97.752 124.189 98.328L123.505 99.672ZM133.667 105C134.307 105 134.867 104.924 135.347 104.772C135.827 104.612 136.227 104.392 136.547 104.112C136.867 103.832 137.107 103.5 137.267 103.116C137.427 102.724 137.507 102.292 137.507 101.82C137.507 100.876 137.195 100.156 136.571 99.66C135.947 99.164 135.003 98.916 133.739 98.916H131.459V105H133.667ZM141.803 114H139.295C138.799 114 138.439 113.808 138.215 113.424L134.183 107.604C134.047 107.404 133.899 107.26 133.739 107.172C133.579 107.084 133.339 107.04 133.019 107.04H131.459V114H128.651V96.72H133.739C134.875 96.72 135.851 96.836 136.667 97.068C137.491 97.3 138.167 97.632 138.695 98.064C139.223 98.488 139.611 99 139.859 99.6C140.115 100.2 140.243 100.868 140.243 101.604C140.243 102.204 140.151 102.764 139.967 103.284C139.791 103.804 139.531 104.276 139.187 104.7C138.851 105.124 138.435 105.492 137.939 105.804C137.443 106.116 136.879 106.36 136.247 106.536C136.591 106.744 136.887 107.036 137.135 107.412L141.803 114ZM166.17 105.492V112.332C164.45 113.572 162.45 114.192 160.17 114.192C158.77 114.192 157.502 113.976 156.366 113.544C155.238 113.104 154.274 112.496 153.474 111.72C152.674 110.936 152.058 110.004 151.626 108.924C151.194 107.844 150.978 106.656 150.978 105.36C150.978 104.056 151.186 102.864 151.602 101.784C152.018 100.696 152.614 99.764 153.39 98.988C154.166 98.204 155.102 97.6 156.198 97.176C157.294 96.744 158.526 96.528 159.894 96.528C160.59 96.528 161.234 96.584 161.826 96.696C162.426 96.8 162.982 96.948 163.494 97.14C164.006 97.332 164.478 97.564 164.91 97.836C165.342 98.108 165.738 98.412 166.098 98.748L165.294 100.032C165.166 100.232 165.002 100.356 164.802 100.404C164.602 100.452 164.386 100.404 164.154 100.26C163.922 100.124 163.674 99.98 163.41 99.828C163.154 99.676 162.858 99.536 162.522 99.408C162.186 99.272 161.798 99.164 161.358 99.084C160.918 98.996 160.398 98.952 159.798 98.952C158.886 98.952 158.062 99.104 157.326 99.408C156.598 99.704 155.974 100.132 155.454 100.692C154.934 101.244 154.534 101.916 154.254 102.708C153.974 103.5 153.834 104.384 153.834 105.36C153.834 106.392 153.982 107.316 154.278 108.132C154.574 108.94 154.994 109.628 155.538 110.196C156.082 110.756 156.738 111.184 157.506 111.48C158.282 111.776 159.146 111.924 160.098 111.924C160.81 111.924 161.442 111.848 161.994 111.696C162.554 111.544 163.102 111.332 163.638 111.06V107.628H161.226C161.042 107.628 160.898 107.58 160.794 107.484C160.69 107.38 160.638 107.248 160.638 107.088V105.492H166.17ZM176.576 108.648C175.656 108.68 174.88 108.756 174.248 108.876C173.616 108.988 173.104 109.136 172.712 109.32C172.32 109.496 172.036 109.708 171.86 109.956C171.692 110.204 171.608 110.476 171.608 110.772C171.608 111.06 171.652 111.308 171.74 111.516C171.836 111.716 171.964 111.884 172.124 112.02C172.292 112.148 172.484 112.244 172.7 112.308C172.924 112.364 173.168 112.392 173.432 112.392C174.104 112.392 174.68 112.268 175.16 112.02C175.648 111.764 176.12 111.396 176.576 110.916V108.648ZM169.736 103.464C171.12 102.176 172.768 101.532 174.68 101.532C175.384 101.532 176.008 101.648 176.552 101.88C177.104 102.104 177.564 102.424 177.932 102.84C178.308 103.256 178.592 103.752 178.784 104.328C178.984 104.896 179.084 105.528 179.084 106.224V114H177.932C177.684 114 177.496 113.964 177.368 113.892C177.24 113.812 177.132 113.656 177.044 113.424L176.792 112.428C176.48 112.708 176.172 112.96 175.868 113.184C175.564 113.4 175.248 113.584 174.92 113.736C174.6 113.888 174.252 114 173.876 114.072C173.508 114.152 173.1 114.192 172.652 114.192C172.156 114.192 171.692 114.124 171.26 113.988C170.836 113.852 170.468 113.648 170.156 113.376C169.844 113.096 169.596 112.752 169.412 112.344C169.236 111.936 169.148 111.456 169.148 110.904C169.148 110.432 169.272 109.972 169.52 109.524C169.776 109.076 170.192 108.676 170.768 108.324C171.352 107.964 172.116 107.668 173.06 107.436C174.012 107.204 175.184 107.072 176.576 107.04V106.224C176.576 105.344 176.388 104.688 176.012 104.256C175.636 103.824 175.084 103.608 174.356 103.608C173.86 103.608 173.444 103.672 173.108 103.8C172.772 103.92 172.48 104.052 172.232 104.196C171.984 104.34 171.764 104.476 171.572 104.604C171.38 104.724 171.176 104.784 170.96 104.784C170.784 104.784 170.632 104.74 170.504 104.652C170.384 104.556 170.284 104.44 170.204 104.304L169.736 103.464ZM193.506 101.76V114H191.946C191.602 114 191.382 113.836 191.286 113.508L191.094 112.368C190.838 112.64 190.566 112.888 190.278 113.112C189.998 113.336 189.698 113.528 189.378 113.688C189.058 113.848 188.714 113.972 188.346 114.06C187.986 114.148 187.598 114.192 187.182 114.192C186.51 114.192 185.918 114.08 185.406 113.856C184.894 113.632 184.462 113.316 184.11 112.908C183.766 112.5 183.506 112.012 183.33 111.444C183.154 110.868 183.066 110.236 183.066 109.548V101.76H185.646V109.548C185.646 110.372 185.834 111.012 186.21 111.468C186.594 111.924 187.174 112.152 187.95 112.152C188.518 112.152 189.046 112.024 189.534 111.768C190.03 111.504 190.494 111.144 190.926 110.688V101.76H193.506ZM200.131 103.38C200.395 103.108 200.667 102.864 200.947 102.648C201.235 102.424 201.539 102.232 201.859 102.072C202.179 101.912 202.519 101.788 202.879 101.7C203.239 101.612 203.631 101.568 204.055 101.568C204.727 101.568 205.315 101.68 205.819 101.904C206.331 102.128 206.759 102.444 207.103 102.852C207.455 103.26 207.719 103.752 207.895 104.328C208.071 104.896 208.159 105.524 208.159 106.212V114H205.591V106.212C205.591 105.388 205.399 104.748 205.015 104.292C204.639 103.836 204.063 103.608 203.287 103.608C202.711 103.608 202.175 103.74 201.679 104.004C201.191 104.268 200.731 104.628 200.299 105.084V114H197.719V101.76H199.279C199.631 101.76 199.855 101.924 199.951 102.252L200.131 103.38ZM214.94 101.76V114H212.36V101.76H214.94ZM215.372 98.064C215.372 98.296 215.324 98.516 215.228 98.724C215.14 98.932 215.016 99.116 214.856 99.276C214.696 99.428 214.508 99.552 214.292 99.648C214.084 99.736 213.86 99.78 213.62 99.78C213.388 99.78 213.168 99.736 212.96 99.648C212.76 99.552 212.584 99.428 212.432 99.276C212.28 99.116 212.156 98.932 212.06 98.724C211.972 98.516 211.928 98.296 211.928 98.064C211.928 97.824 211.972 97.6 212.06 97.392C212.156 97.184 212.28 97.004 212.432 96.852C212.584 96.692 212.76 96.568 212.96 96.48C213.168 96.384 213.388 96.336 213.62 96.336C213.86 96.336 214.084 96.384 214.292 96.48C214.508 96.568 214.696 96.692 214.856 96.852C215.016 97.004 215.14 97.184 215.228 97.392C215.324 97.6 215.372 97.824 215.372 98.064ZM229.619 98.988V104.52H236.375V106.788H229.619V114H226.799V96.72H237.575V98.988H229.619ZM245.845 108.648C244.925 108.68 244.149 108.756 243.517 108.876C242.885 108.988 242.373 109.136 241.981 109.32C241.589 109.496 241.305 109.708 241.129 109.956C240.961 110.204 240.877 110.476 240.877 110.772C240.877 111.06 240.921 111.308 241.009 111.516C241.105 111.716 241.233 111.884 241.393 112.02C241.561 112.148 241.753 112.244 241.969 112.308C242.193 112.364 242.437 112.392 242.701 112.392C243.373 112.392 243.949 112.268 244.429 112.02C244.917 111.764 245.389 111.396 245.845 110.916V108.648ZM239.005 103.464C240.389 102.176 242.037 101.532 243.949 101.532C244.653 101.532 245.277 101.648 245.821 101.88C246.373 102.104 246.833 102.424 247.201 102.84C247.577 103.256 247.861 103.752 248.053 104.328C248.253 104.896 248.353 105.528 248.353 106.224V114H247.201C246.953 114 246.765 113.964 246.637 113.892C246.509 113.812 246.401 113.656 246.313 113.424L246.061 112.428C245.749 112.708 245.441 112.96 245.137 113.184C244.833 113.4 244.517 113.584 244.189 113.736C243.869 113.888 243.521 114 243.145 114.072C242.777 114.152 242.369 114.192 241.921 114.192C241.425 114.192 240.961 114.124 240.529 113.988C240.105 113.852 239.737 113.648 239.425 113.376C239.113 113.096 238.865 112.752 238.681 112.344C238.505 111.936 238.417 111.456 238.417 110.904C238.417 110.432 238.541 109.972 238.789 109.524C239.045 109.076 239.461 108.676 240.037 108.324C240.621 107.964 241.385 107.668 242.329 107.436C243.281 107.204 244.453 107.072 245.845 107.04V106.224C245.845 105.344 245.657 104.688 245.281 104.256C244.905 103.824 244.353 103.608 243.625 103.608C243.129 103.608 242.713 103.672 242.377 103.8C242.041 103.92 241.749 104.052 241.501 104.196C241.253 104.34 241.033 104.476 240.841 104.604C240.649 104.724 240.445 104.784 240.229 104.784C240.053 104.784 239.901 104.74 239.773 104.652C239.653 104.556 239.553 104.44 239.473 104.304L239.005 103.464ZM259.763 103.98C259.699 104.092 259.627 104.172 259.547 104.22C259.467 104.268 259.367 104.292 259.247 104.292C259.111 104.292 258.963 104.252 258.803 104.172C258.643 104.084 258.455 103.988 258.239 103.884C258.023 103.78 257.767 103.688 257.471 103.608C257.183 103.52 256.843 103.476 256.451 103.476C256.131 103.476 255.839 103.516 255.575 103.596C255.319 103.668 255.099 103.776 254.915 103.92C254.739 104.056 254.603 104.22 254.507 104.412C254.411 104.596 254.363 104.796 254.363 105.012C254.363 105.3 254.451 105.54 254.627 105.732C254.803 105.924 255.035 106.092 255.323 106.236C255.611 106.372 255.939 106.496 256.307 106.608C256.675 106.72 257.051 106.84 257.435 106.968C257.819 107.096 258.195 107.244 258.563 107.412C258.931 107.58 259.259 107.788 259.547 108.036C259.835 108.276 260.067 108.572 260.243 108.924C260.419 109.268 260.507 109.688 260.507 110.184C260.507 110.76 260.403 111.292 260.195 111.78C259.987 112.268 259.683 112.692 259.283 113.052C258.883 113.412 258.383 113.692 257.783 113.892C257.191 114.092 256.511 114.192 255.743 114.192C255.319 114.192 254.907 114.152 254.507 114.072C254.115 114 253.739 113.9 253.379 113.772C253.027 113.636 252.695 113.476 252.383 113.292C252.079 113.108 251.807 112.908 251.567 112.692L252.167 111.708C252.239 111.588 252.327 111.496 252.431 111.432C252.543 111.36 252.679 111.324 252.839 111.324C253.007 111.324 253.171 111.38 253.331 111.492C253.499 111.596 253.691 111.712 253.907 111.84C254.131 111.968 254.399 112.088 254.711 112.2C255.023 112.304 255.411 112.356 255.875 112.356C256.259 112.356 256.591 112.312 256.871 112.224C257.151 112.128 257.383 112 257.567 111.84C257.751 111.68 257.887 111.5 257.975 111.3C258.063 111.092 258.107 110.872 258.107 110.64C258.107 110.328 258.019 110.072 257.843 109.872C257.667 109.672 257.431 109.5 257.135 109.356C256.847 109.212 256.515 109.084 256.139 108.972C255.771 108.86 255.395 108.74 255.011 108.612C254.627 108.484 254.247 108.336 253.871 108.168C253.503 108 253.171 107.788 252.875 107.532C252.587 107.268 252.355 106.952 252.179 106.584C252.003 106.208 251.915 105.752 251.915 105.216C251.915 104.728 252.011 104.264 252.203 103.824C252.403 103.384 252.691 102.996 253.067 102.66C253.451 102.324 253.919 102.06 254.471 101.868C255.031 101.668 255.675 101.568 256.403 101.568C257.227 101.568 257.975 101.7 258.647 101.964C259.319 102.228 259.883 102.588 260.339 103.044L259.763 103.98ZM266.592 103.212C267.096 102.716 267.648 102.32 268.248 102.024C268.848 101.72 269.548 101.568 270.348 101.568C271.02 101.568 271.608 101.68 272.112 101.904C272.624 102.128 273.052 102.444 273.396 102.852C273.748 103.26 274.012 103.752 274.188 104.328C274.364 104.896 274.452 105.524 274.452 106.212V114H271.884V106.212C271.884 105.388 271.692 104.748 271.308 104.292C270.932 103.836 270.356 103.608 269.58 103.608C269.004 103.608 268.468 103.74 267.972 104.004C267.484 104.268 267.024 104.628 266.592 105.084V114H264.012V96.24H266.592V103.212ZM281.233 101.76V114H278.653V101.76H281.233ZM281.665 98.064C281.665 98.296 281.617 98.516 281.521 98.724C281.433 98.932 281.309 99.116 281.149 99.276C280.989 99.428 280.801 99.552 280.585 99.648C280.377 99.736 280.153 99.78 279.913 99.78C279.681 99.78 279.461 99.736 279.253 99.648C279.053 99.552 278.877 99.428 278.725 99.276C278.573 99.116 278.449 98.932 278.353 98.724C278.265 98.516 278.221 98.296 278.221 98.064C278.221 97.824 278.265 97.6 278.353 97.392C278.449 97.184 278.573 97.004 278.725 96.852C278.877 96.692 279.053 96.568 279.253 96.48C279.461 96.384 279.681 96.336 279.913 96.336C280.153 96.336 280.377 96.384 280.585 96.48C280.801 96.568 280.989 96.692 281.149 96.852C281.309 97.004 281.433 97.184 281.521 97.392C281.617 97.6 281.665 97.824 281.665 98.064ZM290.847 101.568C291.751 101.568 292.567 101.716 293.295 102.012C294.031 102.308 294.655 102.728 295.167 103.272C295.687 103.816 296.087 104.476 296.367 105.252C296.647 106.028 296.787 106.9 296.787 107.868C296.787 108.836 296.647 109.708 296.367 110.484C296.087 111.26 295.687 111.924 295.167 112.476C294.655 113.02 294.031 113.44 293.295 113.736C292.567 114.032 291.751 114.18 290.847 114.18C289.935 114.18 289.111 114.032 288.375 113.736C287.647 113.44 287.023 113.02 286.503 112.476C285.983 111.924 285.583 111.26 285.303 110.484C285.023 109.708 284.883 108.836 284.883 107.868C284.883 106.9 285.023 106.028 285.303 105.252C285.583 104.476 285.983 103.816 286.503 103.272C287.023 102.728 287.647 102.308 288.375 102.012C289.111 101.716 289.935 101.568 290.847 101.568ZM290.847 112.164C291.951 112.164 292.771 111.796 293.307 111.06C293.851 110.316 294.123 109.256 294.123 107.88C294.123 106.504 293.851 105.444 293.307 104.7C292.771 103.948 291.951 103.572 290.847 103.572C289.727 103.572 288.895 103.948 288.351 104.7C287.807 105.444 287.535 106.504 287.535 107.88C287.535 109.256 287.807 110.316 288.351 111.06C288.895 111.796 289.727 112.164 290.847 112.164ZM302.757 103.38C303.021 103.108 303.293 102.864 303.573 102.648C303.861 102.424 304.165 102.232 304.485 102.072C304.805 101.912 305.145 101.788 305.505 101.7C305.865 101.612 306.257 101.568 306.681 101.568C307.353 101.568 307.941 101.68 308.445 101.904C308.957 102.128 309.385 102.444 309.729 102.852C310.081 103.26 310.345 103.752 310.521 104.328C310.697 104.896 310.785 105.524 310.785 106.212V114H308.217V106.212C308.217 105.388 308.025 104.748 307.641 104.292C307.265 103.836 306.689 103.608 305.913 103.608C305.337 103.608 304.801 103.74 304.305 104.004C303.817 104.268 303.357 104.628 302.925 105.084V114H300.345V101.76H301.905C302.257 101.76 302.481 101.924 302.577 102.252L302.757 103.38ZM328.475 108.648C327.555 108.68 326.779 108.756 326.147 108.876C325.515 108.988 325.003 109.136 324.611 109.32C324.219 109.496 323.935 109.708 323.759 109.956C323.591 110.204 323.507 110.476 323.507 110.772C323.507 111.06 323.551 111.308 323.639 111.516C323.735 111.716 323.863 111.884 324.023 112.02C324.191 112.148 324.383 112.244 324.599 112.308C324.823 112.364 325.067 112.392 325.331 112.392C326.003 112.392 326.579 112.268 327.059 112.02C327.547 111.764 328.019 111.396 328.475 110.916V108.648ZM321.635 103.464C323.019 102.176 324.667 101.532 326.579 101.532C327.283 101.532 327.907 101.648 328.451 101.88C329.003 102.104 329.463 102.424 329.831 102.84C330.207 103.256 330.491 103.752 330.683 104.328C330.883 104.896 330.983 105.528 330.983 106.224V114H329.831C329.583 114 329.395 113.964 329.267 113.892C329.139 113.812 329.031 113.656 328.943 113.424L328.691 112.428C328.379 112.708 328.071 112.96 327.767 113.184C327.463 113.4 327.147 113.584 326.819 113.736C326.499 113.888 326.151 114 325.775 114.072C325.407 114.152 324.999 114.192 324.551 114.192C324.055 114.192 323.591 114.124 323.159 113.988C322.735 113.852 322.367 113.648 322.055 113.376C321.743 113.096 321.495 112.752 321.311 112.344C321.135 111.936 321.047 111.456 321.047 110.904C321.047 110.432 321.171 109.972 321.419 109.524C321.675 109.076 322.091 108.676 322.667 108.324C323.251 107.964 324.015 107.668 324.959 107.436C325.911 107.204 327.083 107.072 328.475 107.04V106.224C328.475 105.344 328.287 104.688 327.911 104.256C327.535 103.824 326.983 103.608 326.255 103.608C325.759 103.608 325.343 103.672 325.007 103.8C324.671 103.92 324.379 104.052 324.131 104.196C323.883 104.34 323.663 104.476 323.471 104.604C323.279 104.724 323.075 104.784 322.859 104.784C322.683 104.784 322.531 104.74 322.403 104.652C322.283 104.556 322.183 104.44 322.103 104.304L321.635 103.464ZM337.497 103.38C337.761 103.108 338.033 102.864 338.313 102.648C338.601 102.424 338.905 102.232 339.225 102.072C339.545 101.912 339.885 101.788 340.245 101.7C340.605 101.612 340.997 101.568 341.421 101.568C342.093 101.568 342.681 101.68 343.185 101.904C343.697 102.128 344.125 102.444 344.469 102.852C344.821 103.26 345.085 103.752 345.261 104.328C345.437 104.896 345.525 105.524 345.525 106.212V114H342.957V106.212C342.957 105.388 342.765 104.748 342.381 104.292C342.005 103.836 341.429 103.608 340.653 103.608C340.077 103.608 339.541 103.74 339.045 104.004C338.557 104.268 338.097 104.628 337.665 105.084V114H335.085V101.76H336.645C336.997 101.76 337.221 101.924 337.317 102.252L337.497 103.38ZM357.431 104.772C357.071 104.308 356.675 103.984 356.243 103.8C355.811 103.616 355.343 103.524 354.839 103.524C353.831 103.524 353.043 103.896 352.475 104.64C351.907 105.376 351.623 106.468 351.623 107.916C351.623 108.668 351.687 109.312 351.815 109.848C351.943 110.376 352.127 110.808 352.367 111.144C352.607 111.48 352.899 111.724 353.243 111.876C353.587 112.028 353.975 112.104 354.407 112.104C355.063 112.104 355.627 111.964 356.099 111.684C356.579 111.396 357.023 110.992 357.431 110.472V104.772ZM360.011 96.24V114H358.451C358.107 114 357.887 113.836 357.791 113.508L357.563 112.176C357.051 112.776 356.467 113.26 355.811 113.628C355.163 113.996 354.407 114.18 353.543 114.18C352.855 114.18 352.231 114.044 351.671 113.772C351.111 113.492 350.631 113.088 350.231 112.56C349.831 112.032 349.519 111.38 349.295 110.604C349.079 109.82 348.971 108.924 348.971 107.916C348.971 107.004 349.091 106.16 349.331 105.384C349.579 104.608 349.931 103.936 350.387 103.368C350.843 102.792 351.395 102.344 352.043 102.024C352.699 101.696 353.431 101.532 354.239 101.532C354.959 101.532 355.571 101.648 356.075 101.88C356.579 102.104 357.031 102.42 357.431 102.828V96.24H360.011ZM380.129 107.52L377.753 101.208C377.561 100.72 377.365 100.1 377.165 99.348C377.077 99.724 376.981 100.072 376.877 100.392C376.773 100.704 376.677 100.98 376.589 101.22L374.213 107.52H380.129ZM385.445 114H383.273C383.025 114 382.825 113.94 382.673 113.82C382.521 113.692 382.405 113.536 382.325 113.352L380.885 109.536H373.445L372.005 113.352C371.941 113.512 371.829 113.66 371.669 113.796C371.509 113.932 371.309 114 371.069 114H368.897L375.749 96.72H378.593L385.445 114ZM390.595 110.928C390.955 111.392 391.347 111.72 391.771 111.912C392.203 112.096 392.679 112.188 393.199 112.188C394.207 112.188 394.991 111.82 395.551 111.084C396.119 110.348 396.403 109.252 396.403 107.796C396.403 107.044 396.339 106.404 396.211 105.876C396.083 105.34 395.899 104.904 395.659 104.568C395.419 104.232 395.127 103.988 394.783 103.836C394.439 103.684 394.051 103.608 393.619 103.608C392.963 103.608 392.395 103.752 391.915 104.04C391.443 104.32 391.003 104.724 390.595 105.252V110.928ZM390.463 103.536C390.975 102.936 391.555 102.452 392.203 102.084C392.859 101.716 393.619 101.532 394.483 101.532C395.171 101.532 395.795 101.672 396.355 101.952C396.915 102.224 397.395 102.624 397.795 103.152C398.195 103.68 398.503 104.336 398.719 105.12C398.943 105.896 399.055 106.788 399.055 107.796C399.055 108.7 398.931 109.544 398.683 110.328C398.443 111.104 398.095 111.78 397.639 112.356C397.183 112.924 396.631 113.372 395.983 113.7C395.335 114.02 394.603 114.18 393.787 114.18C393.067 114.18 392.455 114.064 391.951 113.832C391.455 113.6 391.003 113.28 390.595 112.872V118.068H388.015V101.76H389.575C389.927 101.76 390.151 101.924 390.247 102.252L390.463 103.536ZM405.222 110.928C405.582 111.392 405.974 111.72 406.398 111.912C406.83 112.096 407.306 112.188 407.826 112.188C408.834 112.188 409.618 111.82 410.178 111.084C410.746 110.348 411.03 109.252 411.03 107.796C411.03 107.044 410.966 106.404 410.838 105.876C410.71 105.34 410.526 104.904 410.286 104.568C410.046 104.232 409.754 103.988 409.41 103.836C409.066 103.684 408.678 103.608 408.246 103.608C407.59 103.608 407.022 103.752 406.542 104.04C406.07 104.32 405.63 104.724 405.222 105.252V110.928ZM405.09 103.536C405.602 102.936 406.182 102.452 406.83 102.084C407.486 101.716 408.246 101.532 409.11 101.532C409.798 101.532 410.422 101.672 410.982 101.952C411.542 102.224 412.022 102.624 412.422 103.152C412.822 103.68 413.13 104.336 413.346 105.12C413.57 105.896 413.682 106.788 413.682 107.796C413.682 108.7 413.558 109.544 413.31 110.328C413.07 111.104 412.722 111.78 412.266 112.356C411.81 112.924 411.258 113.372 410.61 113.7C409.962 114.02 409.23 114.18 408.414 114.18C407.694 114.18 407.082 114.064 406.578 113.832C406.082 113.6 405.63 113.28 405.222 112.872V118.068H402.642V101.76H404.202C404.554 101.76 404.778 101.924 404.874 102.252L405.09 103.536ZM423.809 108.648C422.889 108.68 422.113 108.756 421.481 108.876C420.849 108.988 420.337 109.136 419.945 109.32C419.553 109.496 419.269 109.708 419.093 109.956C418.925 110.204 418.841 110.476 418.841 110.772C418.841 111.06 418.885 111.308 418.973 111.516C419.069 111.716 419.197 111.884 419.357 112.02C419.525 112.148 419.717 112.244 419.933 112.308C420.157 112.364 420.401 112.392 420.665 112.392C421.337 112.392 421.913 112.268 422.393 112.02C422.881 111.764 423.353 111.396 423.809 110.916V108.648ZM416.969 103.464C418.353 102.176 420.001 101.532 421.913 101.532C422.617 101.532 423.241 101.648 423.785 101.88C424.337 102.104 424.797 102.424 425.165 102.84C425.541 103.256 425.825 103.752 426.017 104.328C426.217 104.896 426.317 105.528 426.317 106.224V114H425.165C424.917 114 424.729 113.964 424.601 113.892C424.473 113.812 424.365 113.656 424.277 113.424L424.025 112.428C423.713 112.708 423.405 112.96 423.101 113.184C422.797 113.4 422.481 113.584 422.153 113.736C421.833 113.888 421.485 114 421.109 114.072C420.741 114.152 420.333 114.192 419.885 114.192C419.389 114.192 418.925 114.124 418.493 113.988C418.069 113.852 417.701 113.648 417.389 113.376C417.077 113.096 416.829 112.752 416.645 112.344C416.469 111.936 416.381 111.456 416.381 110.904C416.381 110.432 416.505 109.972 416.753 109.524C417.009 109.076 417.425 108.676 418.001 108.324C418.585 107.964 419.349 107.668 420.293 107.436C421.245 107.204 422.417 107.072 423.809 107.04V106.224C423.809 105.344 423.621 104.688 423.245 104.256C422.869 103.824 422.317 103.608 421.589 103.608C421.093 103.608 420.677 103.672 420.341 103.8C420.005 103.92 419.713 104.052 419.465 104.196C419.217 104.34 418.997 104.476 418.805 104.604C418.613 104.724 418.409 104.784 418.193 104.784C418.017 104.784 417.865 104.74 417.737 104.652C417.617 104.556 417.517 104.44 417.437 104.304L416.969 103.464ZM432.855 104.028C433.239 103.252 433.703 102.644 434.247 102.204C434.791 101.756 435.443 101.532 436.203 101.532C436.467 101.532 436.715 101.564 436.947 101.628C437.179 101.684 437.387 101.772 437.571 101.892L437.391 103.836C437.359 103.972 437.307 104.068 437.235 104.124C437.171 104.172 437.083 104.196 436.971 104.196C436.851 104.196 436.679 104.176 436.455 104.136C436.231 104.088 435.995 104.064 435.747 104.064C435.387 104.064 435.067 104.116 434.787 104.22C434.515 104.324 434.267 104.476 434.043 104.676C433.827 104.876 433.635 105.12 433.467 105.408C433.299 105.696 433.143 106.024 432.999 106.392V114H430.419V101.76H431.919C432.191 101.76 432.379 101.812 432.483 101.916C432.587 102.012 432.659 102.184 432.699 102.432L432.855 104.028ZM447.964 106.5C447.964 106.068 447.9 105.668 447.772 105.3C447.652 104.924 447.472 104.6 447.232 104.328C446.992 104.048 446.692 103.832 446.332 103.68C445.98 103.52 445.572 103.44 445.108 103.44C444.172 103.44 443.436 103.708 442.9 104.244C442.364 104.78 442.024 105.532 441.88 106.5H447.964ZM441.808 108.084C441.84 108.78 441.948 109.384 442.132 109.896C442.316 110.4 442.56 110.82 442.864 111.156C443.176 111.492 443.544 111.744 443.968 111.912C444.4 112.072 444.88 112.152 445.408 112.152C445.912 112.152 446.348 112.096 446.716 111.984C447.084 111.864 447.404 111.736 447.676 111.6C447.948 111.456 448.18 111.328 448.372 111.216C448.564 111.096 448.74 111.036 448.9 111.036C449.108 111.036 449.268 111.116 449.38 111.276L450.112 112.224C449.808 112.584 449.464 112.888 449.08 113.136C448.696 113.384 448.288 113.588 447.856 113.748C447.424 113.9 446.98 114.008 446.524 114.072C446.068 114.144 445.624 114.18 445.192 114.18C444.344 114.18 443.556 114.04 442.828 113.76C442.108 113.472 441.48 113.052 440.944 112.5C440.416 111.948 440 111.264 439.696 110.448C439.4 109.632 439.252 108.692 439.252 107.628C439.252 106.78 439.384 105.988 439.648 105.252C439.92 104.516 440.304 103.876 440.8 103.332C441.304 102.788 441.912 102.36 442.624 102.048C443.344 101.728 444.156 101.568 445.06 101.568C445.812 101.568 446.508 101.692 447.148 101.94C447.788 102.18 448.34 102.536 448.804 103.008C449.268 103.48 449.628 104.06 449.884 104.748C450.148 105.428 450.28 106.204 450.28 107.076C450.28 107.476 450.236 107.744 450.148 107.88C450.06 108.016 449.9 108.084 449.668 108.084H441.808ZM456.394 96.24V114H453.814V96.24H456.394ZM467.967 103.98C467.903 104.092 467.831 104.172 467.751 104.22C467.671 104.268 467.571 104.292 467.451 104.292C467.315 104.292 467.167 104.252 467.007 104.172C466.847 104.084 466.659 103.988 466.443 103.884C466.227 103.78 465.971 103.688 465.675 103.608C465.387 103.52 465.047 103.476 464.655 103.476C464.335 103.476 464.043 103.516 463.779 103.596C463.523 103.668 463.303 103.776 463.119 103.92C462.943 104.056 462.807 104.22 462.711 104.412C462.615 104.596 462.567 104.796 462.567 105.012C462.567 105.3 462.655 105.54 462.831 105.732C463.007 105.924 463.239 106.092 463.527 106.236C463.815 106.372 464.143 106.496 464.511 106.608C464.879 106.72 465.255 106.84 465.639 106.968C466.023 107.096 466.399 107.244 466.767 107.412C467.135 107.58 467.463 107.788 467.751 108.036C468.039 108.276 468.271 108.572 468.447 108.924C468.623 109.268 468.711 109.688 468.711 110.184C468.711 110.76 468.607 111.292 468.399 111.78C468.191 112.268 467.887 112.692 467.487 113.052C467.087 113.412 466.587 113.692 465.987 113.892C465.395 114.092 464.715 114.192 463.947 114.192C463.523 114.192 463.111 114.152 462.711 114.072C462.319 114 461.943 113.9 461.583 113.772C461.231 113.636 460.899 113.476 460.587 113.292C460.283 113.108 460.011 112.908 459.771 112.692L460.371 111.708C460.443 111.588 460.531 111.496 460.635 111.432C460.747 111.36 460.883 111.324 461.043 111.324C461.211 111.324 461.375 111.38 461.535 111.492C461.703 111.596 461.895 111.712 462.111 111.84C462.335 111.968 462.603 112.088 462.915 112.2C463.227 112.304 463.615 112.356 464.079 112.356C464.463 112.356 464.795 112.312 465.075 112.224C465.355 112.128 465.587 112 465.771 111.84C465.955 111.68 466.091 111.5 466.179 111.3C466.267 111.092 466.311 110.872 466.311 110.64C466.311 110.328 466.223 110.072 466.047 109.872C465.871 109.672 465.635 109.5 465.339 109.356C465.051 109.212 464.719 109.084 464.343 108.972C463.975 108.86 463.599 108.74 463.215 108.612C462.831 108.484 462.451 108.336 462.075 108.168C461.707 108 461.375 107.788 461.079 107.532C460.791 107.268 460.559 106.952 460.383 106.584C460.207 106.208 460.119 105.752 460.119 105.216C460.119 104.728 460.215 104.264 460.407 103.824C460.607 103.384 460.895 102.996 461.271 102.66C461.655 102.324 462.123 102.06 462.675 101.868C463.235 101.668 463.879 101.568 464.607 101.568C465.431 101.568 466.179 101.7 466.851 101.964C467.523 102.228 468.087 102.588 468.543 103.044L467.967 103.98ZM485.128 105.528C485.752 105.528 486.3 105.448 486.772 105.288C487.252 105.128 487.648 104.904 487.96 104.616C488.28 104.32 488.52 103.964 488.68 103.548C488.84 103.132 488.92 102.668 488.92 102.156C488.92 101.652 488.84 101.2 488.68 100.8C488.528 100.4 488.296 100.06 487.984 99.78C487.672 99.5 487.276 99.288 486.796 99.144C486.324 98.992 485.768 98.916 485.128 98.916H482.56V105.528H485.128ZM485.128 96.72C486.256 96.72 487.232 96.852 488.056 97.116C488.888 97.38 489.572 97.752 490.108 98.232C490.652 98.704 491.056 99.276 491.32 99.948C491.584 100.612 491.716 101.348 491.716 102.156C491.716 102.98 491.576 103.736 491.296 104.424C491.016 105.104 490.6 105.692 490.048 106.188C489.496 106.676 488.808 107.06 487.984 107.34C487.168 107.612 486.216 107.748 485.128 107.748H482.56V114H479.752V96.72H485.128ZM505.776 101.76L500.856 114H498.528L493.608 101.76H495.732C495.932 101.76 496.096 101.812 496.224 101.916C496.36 102.012 496.448 102.128 496.488 102.264L499.2 109.392C499.312 109.728 499.412 110.06 499.5 110.388C499.588 110.716 499.664 111.048 499.728 111.384C499.792 111.048 499.868 110.72 499.956 110.4C500.052 110.072 500.156 109.736 500.268 109.392L503.028 102.264C503.076 102.12 503.164 102 503.292 101.904C503.42 101.808 503.576 101.76 503.76 101.76H505.776ZM512.544 114.192C511.528 114.192 510.744 113.908 510.192 113.34C509.648 112.764 509.376 111.956 509.376 110.916V103.788H508.032C507.888 103.788 507.764 103.744 507.66 103.656C507.556 103.56 507.504 103.42 507.504 103.236V102.192L509.484 101.904L510.048 98.364C510.088 98.228 510.156 98.12 510.252 98.04C510.348 97.952 510.476 97.908 510.636 97.908H511.956V101.928H515.352V103.788H511.956V110.736C511.956 111.176 512.064 111.512 512.28 111.744C512.496 111.976 512.784 112.092 513.144 112.092C513.344 112.092 513.516 112.068 513.66 112.02C513.804 111.964 513.928 111.908 514.032 111.852C514.136 111.788 514.224 111.732 514.296 111.684C514.376 111.628 514.452 111.6 514.524 111.6C514.668 111.6 514.784 111.68 514.872 111.84L515.64 113.1C515.24 113.452 514.768 113.724 514.224 113.916C513.68 114.1 513.12 114.192 512.544 114.192ZM518.069 112.512C518.069 112.28 518.109 112.064 518.189 111.864C518.277 111.656 518.393 111.476 518.537 111.324C518.689 111.172 518.865 111.052 519.065 110.964C519.273 110.876 519.493 110.832 519.725 110.832C519.957 110.832 520.173 110.876 520.373 110.964C520.581 111.052 520.761 111.172 520.913 111.324C521.065 111.476 521.185 111.656 521.273 111.864C521.361 112.064 521.405 112.28 521.405 112.512C521.405 112.752 521.361 112.972 521.273 113.172C521.185 113.372 521.065 113.548 520.913 113.7C520.761 113.852 520.581 113.968 520.373 114.048C520.173 114.136 519.957 114.18 519.725 114.18C519.493 114.18 519.273 114.136 519.065 114.048C518.865 113.968 518.689 113.852 518.537 113.7C518.393 113.548 518.277 113.372 518.189 113.172C518.109 112.972 518.069 112.752 518.069 112.512ZM542.738 111.648V114H532.754V96.72H535.562V111.648H542.738ZM548.621 114.192C547.605 114.192 546.821 113.908 546.269 113.34C545.725 112.764 545.453 111.956 545.453 110.916V103.788H544.109C543.965 103.788 543.841 103.744 543.737 103.656C543.633 103.56 543.581 103.42 543.581 103.236V102.192L545.561 101.904L546.125 98.364C546.165 98.228 546.233 98.12 546.329 98.04C546.425 97.952 546.553 97.908 546.713 97.908H548.033V101.928H551.429V103.788H548.033V110.736C548.033 111.176 548.141 111.512 548.357 111.744C548.573 111.976 548.861 112.092 549.221 112.092C549.421 112.092 549.593 112.068 549.737 112.02C549.881 111.964 550.005 111.908 550.109 111.852C550.213 111.788 550.301 111.732 550.373 111.684C550.453 111.628 550.529 111.6 550.601 111.6C550.745 111.6 550.861 111.68 550.949 111.84L551.717 113.1C551.317 113.452 550.845 113.724 550.301 113.916C549.757 114.1 549.197 114.192 548.621 114.192ZM562.355 104.772C561.995 104.308 561.599 103.984 561.167 103.8C560.735 103.616 560.267 103.524 559.763 103.524C558.755 103.524 557.967 103.896 557.399 104.64C556.831 105.376 556.547 106.468 556.547 107.916C556.547 108.668 556.611 109.312 556.739 109.848C556.867 110.376 557.051 110.808 557.291 111.144C557.531 111.48 557.823 111.724 558.167 111.876C558.511 112.028 558.899 112.104 559.331 112.104C559.987 112.104 560.551 111.964 561.023 111.684C561.503 111.396 561.947 110.992 562.355 110.472V104.772ZM564.935 96.24V114H563.375C563.031 114 562.811 113.836 562.715 113.508L562.487 112.176C561.975 112.776 561.391 113.26 560.735 113.628C560.087 113.996 559.331 114.18 558.467 114.18C557.779 114.18 557.155 114.044 556.595 113.772C556.035 113.492 555.555 113.088 555.155 112.56C554.755 112.032 554.443 111.38 554.219 110.604C554.003 109.82 553.895 108.924 553.895 107.916C553.895 107.004 554.015 106.16 554.255 105.384C554.503 104.608 554.855 103.936 555.311 103.368C555.767 102.792 556.319 102.344 556.967 102.024C557.623 101.696 558.355 101.532 559.163 101.532C559.883 101.532 560.495 101.648 560.999 101.88C561.503 102.104 561.955 102.42 562.355 102.828V96.24H564.935ZM568.774 112.512C568.774 112.28 568.814 112.064 568.894 111.864C568.982 111.656 569.098 111.476 569.242 111.324C569.394 111.172 569.57 111.052 569.77 110.964C569.978 110.876 570.198 110.832 570.43 110.832C570.662 110.832 570.878 110.876 571.078 110.964C571.286 111.052 571.466 111.172 571.618 111.324C571.77 111.476 571.89 111.656 571.978 111.864C572.066 112.064 572.11 112.28 572.11 112.512C572.11 112.752 572.066 112.972 571.978 113.172C571.89 113.372 571.77 113.548 571.618 113.7C571.466 113.852 571.286 113.968 571.078 114.048C570.878 114.136 570.662 114.18 570.43 114.18C570.198 114.18 569.978 114.136 569.77 114.048C569.57 113.968 569.394 113.852 569.242 113.7C569.098 113.548 568.982 113.372 568.894 113.172C568.814 112.972 568.774 112.752 568.774 112.512Z" fill="white"/>
<g clip-path="url(#clip0_466_5)">
<path d="M127.75 47.5275C125.787 43.8252 121.81 40.9864 117.114 39.9267C112.627 38.9194 108.244 39.6913 105.091 42.0591C102.161 44.2569 100.159 48.0377 98.4065 51.3605L98.3149 51.5306C98.014 52.0931 97.7262 52.6426 97.4253 53.179L97.2029 53.5845L96.7974 53.349C94.3772 51.9623 91.9308 50.5494 89.4714 49.1366L89.0658 48.9011L91.8785 44.3616C93.6838 41.4573 95.463 38.4485 97.1898 35.5442L97.2814 35.4003C98.328 33.6342 99.3876 31.842 100.473 30.0628L100.709 29.6834L104.477 31.8681C104.961 32.1559 105.445 32.4437 105.929 32.7054C106.033 32.7577 106.138 32.8231 106.203 32.8493L106.831 33.1633C111.986 35.7666 118.03 36.2637 122.255 34.4322C125.5 33.0324 127.737 30.3375 128.757 26.6353C129.777 22.9069 129.11 19.3093 126.847 16.2219C123.995 12.3365 118.762 9.72004 113.529 9.57614C106.727 9.39299 103.064 13.7493 100.395 18.0534L97.0329 23.4825L89.3013 19.0084L101.428 0.117739L93.6577 0C92.4672 1.85767 89.6153 6.31868 87.2474 10.0078L83.6106 15.6986L82.1584 14.8221C78.8617 12.8205 75.5127 10.7797 71.8759 9.98168C66.7738 8.8697 61.3317 10.5181 58.035 14.1811C55.1438 17.3993 54.3196 21.5594 55.7063 25.8896C56.8837 29.5526 59.9057 32.6661 64.0266 34.4061C68.5399 36.3161 73.5111 36.3291 77.3442 34.4061C80.9811 32.5876 83.3489 28.6107 85.4421 25.1047C85.9654 24.2282 86.4494 23.4171 86.9334 22.6583L87.3782 21.9519L95.1621 26.4521L83.3097 45.5521L82.9303 45.3297C81.4128 44.4401 79.8952 43.5505 78.3777 42.6609C71.4965 38.6054 61.8549 37.7159 56.9884 45.3558C54.1496 49.7907 54.856 53.7546 55.9418 56.2925C57.878 60.832 62.5875 64.4165 67.912 65.4239C74.283 66.6274 79.6205 64.0895 83.362 58.0586L87.2212 51.8315L95.4238 56.5672L95.1883 56.9597C94.2594 58.5296 86.711 71.6902 84.9057 74.843L92.8727 74.9477L101.193 59.8901L102.043 60.3741C102.514 60.6489 102.985 60.9236 103.456 61.2114C104.437 61.8001 105.379 62.3626 106.347 62.8598C106.4 62.8859 106.465 62.9252 106.531 62.9644C106.635 63.0298 106.714 63.0691 106.792 63.1083L107.001 63.2261C108.781 64.2595 110.35 64.7305 110.521 64.7697C111.842 65.2015 113.15 65.4762 114.406 65.6201C119.416 66.1565 124.44 63.854 127.2 59.7331C129.699 56.0047 129.908 51.5437 127.75 47.4621V47.5275ZM102.789 26.269C104.843 22.9592 106.701 20.1465 108.467 17.6478C110.324 15.0183 112.941 13.3961 115.453 13.3046C115.505 13.3046 115.557 13.3046 115.623 13.3046C118.867 13.3046 121.379 16.3265 122.203 19.3747C123.642 24.686 120.489 30.3898 115.322 31.8158C114.929 31.9205 114.511 31.9728 114.053 31.9728C112.627 31.9728 110.992 31.4887 109.801 30.8739H109.775L102.527 26.6745L102.776 26.269H102.789ZM81.4128 19.0869C79.5943 21.8995 77.9983 24.359 76.52 26.5829C74.3353 29.9058 72.0852 31.6327 69.4557 32.012C69.2071 32.0513 68.9324 32.0513 68.6577 32.0513C67.0355 32.0513 64.7853 30.8216 63.5949 29.2648C61.4756 26.4914 61.2139 22.0565 62.7053 18.9037C64.249 15.6463 67.5326 13.37 70.6985 13.37C71.7058 13.37 72.7001 13.5924 73.6289 14.0241C74.7278 14.5343 75.8528 15.2276 76.9387 15.8948C77.5012 16.235 78.0245 16.562 78.5609 16.876L81.6744 18.6813L81.4128 19.0869ZM80.3008 50.4186C79.8429 51.1512 79.3981 51.9231 78.9272 52.7472C77.2657 55.6515 75.4081 58.8959 72.9224 60.5442C71.575 61.4338 70.2014 61.8786 68.867 61.8786C67.7157 61.8786 66.6038 61.5515 65.5703 60.8974C62.8623 59.1706 61.3186 55.5076 61.8026 51.9754C62.2343 48.7964 64.3144 45.7745 67.0747 44.27C69.2202 43.1057 71.5096 43.0141 73.655 44.0476C76.0622 45.2119 78.4562 46.664 80.7587 48.0769L81.4651 48.5086L80.2746 50.4186H80.3008ZM122.164 54.6965C121.536 56.9728 120.149 58.9744 118.265 60.3218C117.493 60.8713 116.277 61.5908 114.903 61.8655C114.55 61.9309 114.21 61.9702 113.883 61.9702C112.823 61.9702 111.933 61.6431 111.005 61.303C110.717 61.1983 109.199 60.4526 108.741 60.2041L108.624 60.1387C108.414 60.0209 108.205 59.9032 107.996 59.7854L102.972 56.8943L103.208 56.4887C104.594 54.134 106.02 51.7138 107.512 49.1627C108.584 47.3312 110.01 45.3035 112.378 44.113C114.851 42.8702 117.297 43.0795 119.246 44.6886C121.876 46.8603 123.119 51.1643 122.164 54.6834V54.6965Z" fill="#F09A41"/>
<path d="M170.319 28.4275C170.28 28.8069 170.097 29.0031 169.757 29.0031C169.377 29.0031 169.168 28.82 169.129 28.4275C169.129 27.0146 168.828 26.0466 168.226 25.5233C167.624 25 166.473 24.7514 164.785 24.7514H157.996V36.8132H167.624V39.0371H157.996V54.7881H150.801V28.0612C150.801 26.3736 150.552 25.2224 150.055 24.6206C149.558 24.0188 148.59 23.7179 147.177 23.7179C146.797 23.6787 146.614 23.4825 146.614 23.09C146.614 22.7499 146.797 22.5536 147.177 22.5275H170.332V28.4275H170.319Z" fill="white"/>
<path d="M193.579 54.7881H186.384V53.2313C185.861 53.9901 185.377 54.5133 184.932 54.7881C184.278 55.1282 183.271 55.3114 181.923 55.3114C178.679 55.3114 176.088 54.0555 174.152 51.5306C172.386 49.2805 171.51 46.5463 171.51 43.2889C171.51 40.0314 172.465 37.428 174.388 35.2302C176.311 33.0324 178.77 31.9466 181.766 31.9466C183.938 31.9466 185.481 32.81 186.371 34.5369V32.4699L193.566 31.1748V54.7881H193.579ZM186.384 45.1073V43.2889C186.384 37.4542 185.364 34.5369 183.323 34.5369C180.209 34.5369 178.666 37.4542 178.666 43.2889C178.666 49.4375 180.222 52.5118 183.323 52.5118C185.364 52.5118 186.384 50.0392 186.384 45.1073Z" fill="white"/>
<path d="M218.278 47.6845C218.278 50.314 217.179 52.2763 214.969 53.5845C213.032 54.7227 210.377 55.2983 206.988 55.2983C204.673 55.2983 201.965 54.9974 198.851 54.4218V51.3606C202.41 52.1586 205.183 52.551 207.185 52.551C210.364 52.551 211.947 51.8708 211.947 50.5364C211.947 49.7776 210.808 48.7965 208.532 47.5798C204.869 45.6829 202.75 44.5186 202.161 44.113C199.885 42.5563 198.747 40.9733 198.747 39.3511C198.747 37.0748 199.558 35.2957 201.18 34.0136C203.012 32.5615 205.706 31.842 209.265 31.842C211.227 31.842 213.647 32.1167 216.512 32.6662V35.5704C213.412 34.7724 210.835 34.3799 208.794 34.3799C207.891 34.3799 207.054 34.5631 206.256 34.9424C205.458 35.3218 205.065 35.8059 205.065 36.3946C205.065 37.0225 206.204 37.9513 208.48 39.1942C211.894 41.0649 214.027 42.2815 214.851 42.8702C217.127 44.5317 218.265 46.1277 218.265 47.6845H218.278Z" fill="white"/>
<path d="M245.986 54.7881H238.791V41.6798C238.791 39.6128 238.647 38.1607 238.373 37.3234C237.928 35.9105 236.986 35.2041 235.573 35.2041C233.807 35.2041 232.473 35.832 231.557 37.101C230.641 38.3569 230.183 39.9267 230.183 41.7844V54.7881H222.988V28.0612C222.988 26.3736 222.739 25.2224 222.242 24.6206C221.745 24.0188 220.79 23.718 219.364 23.718C218.985 23.6787 218.802 23.4825 218.802 23.09C218.802 22.7499 218.985 22.5536 219.364 22.5275L230.183 20.6044V34.9032C231.74 32.9409 234.173 31.9466 237.483 31.9466C240.204 31.9466 242.389 33.0194 244.011 35.1518C245.319 36.9178 245.973 38.8278 245.973 40.8948V54.775L245.986 54.7881Z" fill="white"/>
<path d="M259.867 54.7881H252.671V38.6316C252.671 36.944 252.423 35.7928 251.926 35.191C251.429 34.5892 250.46 34.2883 249.048 34.2883C248.668 34.2491 248.472 34.0528 248.472 33.6604C248.472 33.3202 248.655 33.124 249.048 33.0978L259.867 31.1748V54.7881ZM259.71 26.2559C259.71 27.3548 259.317 28.2967 258.519 29.0816C257.721 29.8535 256.779 30.2459 255.667 30.2459C254.555 30.2459 253.679 29.8535 252.92 29.0816C252.161 28.3098 251.782 27.3679 251.782 26.2559C251.782 25.1439 252.161 24.2282 252.92 23.4825C253.679 22.7368 254.594 22.3705 255.667 22.3705C256.74 22.3705 257.721 22.7368 258.519 23.4825C259.317 24.2282 259.71 25.1439 259.71 26.2559Z" fill="white"/>
<path d="M288.307 43.6552C288.307 47.3836 287.221 50.2616 285.076 52.2763C282.917 54.2909 280.065 55.3114 276.507 55.3114C272.949 55.3114 270.123 54.3302 268.017 52.3548C265.806 50.2878 264.707 47.3836 264.707 43.6552C264.707 39.9267 265.806 36.7085 268.017 34.5369C270.123 32.4699 272.949 31.4233 276.507 31.4233C280.065 31.4233 282.891 32.4568 284.997 34.5369C287.208 36.7085 288.307 39.7567 288.307 43.6552ZM281.112 43.6552C281.112 40.4762 280.929 38.213 280.549 36.8655C279.895 34.55 278.548 33.3987 276.507 33.3987C274.466 33.3987 273.119 34.55 272.465 36.8655C272.085 38.213 271.889 40.4762 271.889 43.6552C271.889 46.4547 272.072 48.4171 272.465 49.5552C273.119 51.5175 274.466 52.5118 276.507 52.5118C278.548 52.5118 279.895 51.5306 280.549 49.5552C280.929 48.4171 281.112 46.4417 281.112 43.6552Z" fill="white"/>
<path d="M317.31 54.7881H310.115V40.7509C310.115 38.6839 309.971 37.2318 309.696 36.3946C309.252 34.9817 308.31 34.2752 306.897 34.2752C305.131 34.2752 303.796 34.9032 302.881 36.1722C301.965 37.428 301.507 38.9979 301.507 40.8556V54.7881H294.312V38.6316C294.312 36.944 294.063 35.7928 293.566 35.191C293.069 34.5892 292.101 34.2883 290.688 34.2883C290.309 34.2491 290.126 34.0528 290.126 33.6604C290.126 33.3202 290.309 33.124 290.688 33.0979L301.507 31.1748V34.236C303.064 32.7185 305.497 31.9597 308.807 31.9597C311.528 31.9597 313.713 33.0324 315.335 35.1648C316.643 36.9309 317.297 38.8409 317.297 40.9079V54.7881H317.31Z" fill="white"/>
<path d="M362.051 46.1931C362.051 51.9231 356.858 54.7881 346.457 54.7881H336.044V28.0612C336.044 26.3736 335.795 25.2224 335.298 24.6206C334.801 24.0188 333.833 23.7179 332.42 23.7179C332.041 23.6787 331.858 23.4825 331.858 23.09C331.858 22.7499 332.041 22.5536 332.42 22.5275H347.125C350.683 22.5275 353.587 23.0115 355.824 23.9796C358.859 25.2878 360.377 27.394 360.377 30.2983C360.377 33.5426 357.839 36.0021 352.763 37.6504C358.938 38.7886 362.038 41.6405 362.038 46.1931H362.051ZM353.299 30.4945C353.299 26.6614 351.023 24.7514 346.457 24.7514H343.239V36.6169H345.986C350.853 36.6169 353.286 34.5761 353.286 30.5076L353.299 30.4945ZM354.908 45.3035C354.908 41.0256 352.318 38.8802 347.138 38.8802H343.252V52.0931H347.399C350.029 52.0931 351.926 51.5699 353.116 50.5102C354.307 49.4505 354.908 47.7237 354.908 45.3035Z" fill="white"/>
<path d="M385.769 31.842L377.279 54.7881C376.18 57.8231 375.055 60.0471 373.917 61.4731C372.295 63.5401 370.306 64.5735 367.964 64.5735H364.236L366.303 61.1068H369.822C371.379 61.1068 372.622 59.9032 373.55 57.483L374.95 53.9116L368.736 38.527C368.082 36.9048 367.559 35.8713 367.179 35.4134C366.565 34.6546 365.61 34.2753 364.328 34.2753C363.948 34.236 363.765 34.0398 363.765 33.6473C363.765 33.3072 363.948 33.111 364.328 33.0848L374.375 31.1617L379.189 43.0796L383.545 31.842H385.769Z" fill="white"/>
<path d="M408.872 54.7881H389.354V28.0612C389.354 26.3736 389.105 25.2224 388.608 24.6206C388.111 24.0188 387.143 23.7179 385.73 23.7179C385.351 23.6787 385.167 23.4825 385.167 23.09C385.167 22.7499 385.351 22.5536 385.73 22.5275H396.549V52.1062H408.872V54.8011V54.7881Z" fill="white"/>
<path d="M428.757 54.7881H421.562V53.2313C421.039 53.9901 420.555 54.5133 420.11 54.7881C419.456 55.1282 418.448 55.3114 417.101 55.3114C413.857 55.3114 411.266 54.0555 409.33 51.5306C407.564 49.2805 406.688 46.5463 406.688 43.2889C406.688 40.0314 407.643 37.428 409.566 35.2302C411.489 33.0324 413.948 31.9466 416.944 31.9466C419.116 31.9466 420.659 32.81 421.549 34.5369V32.4699L428.744 31.1748V54.7881H428.757ZM421.562 45.1073V43.2889C421.562 37.4542 420.542 34.5369 418.501 34.5369C415.387 34.5369 413.843 37.4542 413.843 43.2889C413.843 49.4375 415.4 52.5118 418.501 52.5118C420.542 52.5118 421.562 50.0392 421.562 45.1073Z" fill="white"/>
<path d="M460.298 54.7881H453.103V40.7509C453.103 38.6839 452.959 37.2318 452.684 36.3946C452.24 34.9817 451.298 34.2752 449.885 34.2752C448.119 34.2752 446.784 34.9032 445.869 36.1722C444.953 37.428 444.495 38.9979 444.495 40.8556V54.7881H437.3V38.6316C437.3 36.944 437.051 35.7928 436.554 35.191C436.057 34.5892 435.089 34.2883 433.676 34.2883C433.297 34.2491 433.114 34.0528 433.114 33.6604C433.114 33.3202 433.297 33.124 433.676 33.0979L444.495 31.1748V34.236C446.052 32.7185 448.485 31.9597 451.795 31.9597C454.516 31.9597 456.701 33.0324 458.323 35.1648C459.631 36.9309 460.285 38.8409 460.285 40.9079V54.7881H460.298Z" fill="white"/>
<path d="M486.096 40.4369L472.216 43.3935C472.216 45.5651 472.805 47.5013 473.982 49.1889C475.33 51.0858 477.07 52.0408 479.215 52.0408C481.361 52.0408 483.336 51.112 485.272 49.2412V52.551C483.31 54.3825 480.484 55.2983 476.834 55.2983C473.184 55.2983 470.424 54.2909 468.291 52.2632C466.146 50.2486 465.086 47.3705 465.086 43.6421C465.086 39.9136 466.172 36.6954 468.344 34.5238C470.45 32.4568 473.276 31.4102 476.834 31.4102C479.529 31.4102 481.74 32.3783 483.467 34.3145C484.984 36.0021 485.861 38.0429 486.109 40.4239L486.096 40.4369ZM481.282 39.5081C480.942 35.2302 479.451 33.0848 476.834 33.0848C473.969 33.0848 472.425 35.8582 472.229 41.4181L481.295 39.5081H481.282Z" fill="white"/>
<path d="M510.128 47.6845C510.128 50.314 509.029 52.2763 506.818 53.5845C504.882 54.7227 502.227 55.2983 498.838 55.2983C496.523 55.2983 493.815 54.9974 490.701 54.4218V51.3606C494.26 52.1586 497.033 52.551 499.035 52.551C502.214 52.551 503.796 51.8708 503.796 50.5364C503.796 49.7776 502.658 48.7965 500.382 47.5798C496.719 45.6829 494.6 44.5186 494.011 44.113C491.735 42.5563 490.597 40.9733 490.597 39.3511C490.597 37.0748 491.408 35.2957 493.03 34.0136C494.861 32.5615 497.556 31.842 501.115 31.842C503.077 31.842 505.497 32.1167 508.362 32.6662V35.5704C505.262 34.7724 502.684 34.3799 500.644 34.3799C499.741 34.3799 498.904 34.5631 498.106 34.9424C497.308 35.3218 496.915 35.8059 496.915 36.3946C496.915 37.0225 498.053 37.9513 500.33 39.1942C503.744 41.0649 505.876 42.2815 506.701 42.8702C508.977 44.5317 510.115 46.1277 510.115 47.6845H510.128Z" fill="white"/>
</g>
<defs>
<clipPath id="clip0_466_5">
<rect width="455.128" height="75" fill="white" transform="translate(55)"/>
</clipPath>
</defs>
</svg>
