<svg width="456" height="75" viewBox="0 0 456 75" fill="none" xmlns="http://www.w3.org/2000/svg">
<g clip-path="url(#clip0_86_11)">
<path d="M72.7498 47.5275C70.7874 43.8252 66.8105 40.9864 62.114 39.9267C57.6268 38.9194 53.2443 39.6913 50.0915 42.0591C47.1611 44.2569 45.1595 48.0377 43.4065 51.3605L43.3149 51.5306C43.014 52.0931 42.7262 52.6426 42.4253 53.179L42.2029 53.5845L41.7974 53.349C39.3772 51.9623 36.9308 50.5494 34.4714 49.1366L34.0658 48.9011L36.8785 44.3616C38.6838 41.4573 40.463 38.4485 42.1898 35.5442L42.2814 35.4003C43.328 33.6342 44.3876 31.842 45.4735 30.0628L45.7089 29.6834L49.4766 31.8681C49.9606 32.1559 50.4447 32.4437 50.9287 32.7054C51.0334 32.7577 51.138 32.8231 51.2034 32.8493L51.8314 33.1633C56.9858 35.7666 63.0297 36.2637 67.2553 34.4322C70.4996 33.0324 72.7367 30.3375 73.7571 26.6353C74.7775 22.9069 74.1103 19.3093 71.8471 16.2219C68.9952 12.3365 63.7623 9.72004 58.5295 9.57614C51.7267 9.39299 48.0637 13.7493 45.395 18.0534L42.0329 23.4825L34.3013 19.0084L46.4285 0.117739L38.6577 0C37.4672 1.85767 34.6153 6.31868 32.2474 10.0078L28.6106 15.6986L27.1584 14.8221C23.8617 12.8205 20.5127 10.7797 16.8759 9.98168C11.7738 8.8697 6.33166 10.5181 3.03495 14.1811C0.143796 17.3993 -0.680379 21.5594 0.706329 25.8896C1.88372 29.5526 4.9057 32.6661 9.02658 34.4061C13.5399 36.3161 18.5111 36.3291 22.3442 34.4061C25.9811 32.5876 28.3489 28.6107 30.4421 25.1047C30.9654 24.2282 31.4494 23.4171 31.9334 22.6583L32.3782 21.9519L40.1621 26.4521L28.3097 45.5521L27.9303 45.3297C26.4128 44.4401 24.8952 43.5505 23.3777 42.6609C16.4965 38.6054 6.85494 37.7159 1.98838 45.3558C-0.850448 49.7907 -0.144011 53.7546 0.941808 56.2925C2.87797 60.832 7.58754 64.4165 12.912 65.4239C19.283 66.6274 24.6205 64.0895 28.362 58.0586L32.2212 51.8315L40.4238 56.5672L40.1883 56.9597C39.2594 58.5296 31.711 71.6902 29.9057 74.843L37.8727 74.9477L46.193 59.8901L47.0433 60.3741C47.5143 60.6489 47.9852 60.9236 48.4562 61.2114C49.4374 61.8001 50.3793 62.3626 51.3474 62.8598C51.3997 62.8859 51.4651 62.9252 51.5305 62.9644C51.6352 63.0298 51.7137 63.0691 51.7921 63.1083L52.0015 63.2261C53.7806 64.2595 55.3505 64.7305 55.5206 64.7697C56.8419 65.2015 58.1501 65.4762 59.406 65.6201C64.4164 66.1565 69.44 63.854 72.2003 59.7331C74.699 56.0047 74.9083 51.5437 72.7498 47.4621V47.5275ZM47.789 26.269C49.8429 22.9592 51.7006 20.1465 53.4667 17.6478C55.3243 15.0183 57.9408 13.3961 60.4525 13.3046C60.5049 13.3046 60.5572 13.3046 60.6226 13.3046C63.867 13.3046 66.3788 16.3265 67.2029 19.3747C68.642 24.686 65.4892 30.3898 60.3217 31.8158C59.9292 31.9205 59.5106 31.9728 59.0527 31.9728C57.6268 31.9728 55.9915 31.4887 54.801 30.8739H54.7749L47.5274 26.6745L47.7759 26.269H47.789ZM26.4128 19.0869C24.5943 21.8995 22.9983 24.359 21.52 26.5829C19.3353 29.9058 17.0852 31.6327 14.4557 32.012C14.2071 32.0513 13.9324 32.0513 13.6577 32.0513C12.0355 32.0513 9.78535 30.8216 8.59487 29.2648C6.47556 26.4914 6.21392 22.0565 7.70528 18.9037C9.24898 15.6463 12.5326 13.37 15.6985 13.37C16.7058 13.37 17.7001 13.5924 18.6289 14.0241C19.7278 14.5343 20.8528 15.2276 21.9387 15.8948C22.5012 16.235 23.0245 16.562 23.5609 16.876L26.6744 18.6813L26.4128 19.0869ZM25.3008 50.4186C24.8429 51.1512 24.3981 51.9231 23.9272 52.7472C22.2657 55.6515 20.4081 58.8959 17.9224 60.5442C16.575 61.4338 15.2014 61.8786 13.867 61.8786C12.7157 61.8786 11.6038 61.5515 10.5703 60.8974C7.86227 59.1706 6.31857 55.5076 6.80261 51.9754C7.23432 48.7964 9.31439 45.7745 12.0747 44.27C14.2202 43.1057 16.5096 43.0141 18.655 44.0476C21.0622 45.2119 23.4562 46.664 25.7587 48.0769L26.4651 48.5086L25.2746 50.4186H25.3008ZM67.1637 54.6965C66.5357 56.9728 65.149 58.9744 63.2652 60.3218C62.4934 60.8713 61.2767 61.5908 59.9031 61.8655C59.5499 61.9309 59.2097 61.9702 58.8827 61.9702C57.823 61.9702 56.9334 61.6431 56.0046 61.303C55.7168 61.1983 54.1993 60.4526 53.7414 60.2041L53.6237 60.1387C53.4143 60.0209 53.205 59.9032 52.9957 59.7854L47.9722 56.8943L48.2076 56.4887C49.5943 54.134 51.0203 51.7138 52.5117 49.1627C53.5844 47.3312 55.0104 45.3035 57.3782 44.113C59.8508 42.8702 62.2971 43.0795 64.2464 44.6886C66.8759 46.8603 68.1187 51.1643 67.1637 54.6834V54.6965Z" fill="#F09A41"/>
<path d="M115.319 28.4275C115.28 28.8069 115.097 29.0031 114.757 29.0031C114.377 29.0031 114.168 28.82 114.129 28.4275C114.129 27.0146 113.828 26.0466 113.226 25.5233C112.624 25 111.473 24.7514 109.785 24.7514H102.996V36.8132H112.624V39.0371H102.996V54.7881H95.8006V28.0612C95.8006 26.3736 95.5521 25.2224 95.0549 24.6206C94.5578 24.0188 93.5897 23.7179 92.1769 23.7179C91.7975 23.6787 91.6143 23.4825 91.6143 23.09C91.6143 22.7499 91.7975 22.5536 92.1769 22.5275H115.332V28.4275H115.319Z" fill="white"/>
<path d="M138.579 54.7881H131.384V53.2313C130.861 53.9901 130.377 54.5133 129.932 54.7881C129.278 55.1282 128.271 55.3114 126.923 55.3114C123.679 55.3114 121.088 54.0555 119.152 51.5306C117.386 49.2805 116.51 46.5463 116.51 43.2889C116.51 40.0314 117.465 37.428 119.388 35.2302C121.311 33.0324 123.77 31.9466 126.766 31.9466C128.938 31.9466 130.481 32.81 131.371 34.5369V32.4699L138.566 31.1748V54.7881H138.579ZM131.384 45.1073V43.2889C131.384 37.4542 130.364 34.5369 128.323 34.5369C125.209 34.5369 123.666 37.4542 123.666 43.2889C123.666 49.4375 125.222 52.5118 128.323 52.5118C130.364 52.5118 131.384 50.0392 131.384 45.1073Z" fill="white"/>
<path d="M163.278 47.6845C163.278 50.314 162.179 52.2763 159.969 53.5845C158.032 54.7227 155.377 55.2983 151.988 55.2983C149.673 55.2983 146.965 54.9974 143.851 54.4218V51.3606C147.41 52.1586 150.183 52.551 152.185 52.551C155.364 52.551 156.947 51.8708 156.947 50.5364C156.947 49.7776 155.808 48.7965 153.532 47.5798C149.869 45.6829 147.75 44.5186 147.161 44.113C144.885 42.5563 143.747 40.9733 143.747 39.3511C143.747 37.0748 144.558 35.2957 146.18 34.0136C148.012 32.5615 150.706 31.842 154.265 31.842C156.227 31.842 158.647 32.1167 161.512 32.6662V35.5704C158.412 34.7724 155.835 34.3799 153.794 34.3799C152.891 34.3799 152.054 34.5631 151.256 34.9424C150.458 35.3218 150.065 35.8059 150.065 36.3946C150.065 37.0225 151.204 37.9513 153.48 39.1942C156.894 41.0649 159.027 42.2815 159.851 42.8702C162.127 44.5317 163.265 46.1277 163.265 47.6845H163.278Z" fill="white"/>
<path d="M190.986 54.7881H183.791V41.6798C183.791 39.6128 183.647 38.1607 183.373 37.3234C182.928 35.9105 181.986 35.2041 180.573 35.2041C178.807 35.2041 177.473 35.832 176.557 37.101C175.641 38.3569 175.183 39.9267 175.183 41.7844V54.7881H167.988V28.0612C167.988 26.3736 167.739 25.2224 167.242 24.6206C166.745 24.0188 165.79 23.718 164.364 23.718C163.985 23.6787 163.802 23.4825 163.802 23.09C163.802 22.7499 163.985 22.5536 164.364 22.5275L175.183 20.6044V34.9032C176.74 32.9409 179.173 31.9466 182.483 31.9466C185.204 31.9466 187.389 33.0194 189.011 35.1518C190.319 36.9178 190.973 38.8278 190.973 40.8948V54.775L190.986 54.7881Z" fill="white"/>
<path d="M204.867 54.7881H197.671V38.6316C197.671 36.944 197.423 35.7928 196.926 35.191C196.429 34.5892 195.46 34.2883 194.048 34.2883C193.668 34.2491 193.472 34.0528 193.472 33.6604C193.472 33.3202 193.655 33.124 194.048 33.0978L204.867 31.1748V54.7881ZM204.71 26.2559C204.71 27.3548 204.317 28.2967 203.519 29.0816C202.721 29.8535 201.779 30.2459 200.667 30.2459C199.555 30.2459 198.679 29.8535 197.92 29.0816C197.161 28.3098 196.782 27.3679 196.782 26.2559C196.782 25.1439 197.161 24.2282 197.92 23.4825C198.679 22.7368 199.594 22.3705 200.667 22.3705C201.74 22.3705 202.721 22.7368 203.519 23.4825C204.317 24.2282 204.71 25.1439 204.71 26.2559Z" fill="white"/>
<path d="M233.307 43.6552C233.307 47.3836 232.221 50.2616 230.076 52.2763C227.917 54.2909 225.065 55.3114 221.507 55.3114C217.949 55.3114 215.123 54.3302 213.017 52.3548C210.806 50.2878 209.707 47.3836 209.707 43.6552C209.707 39.9267 210.806 36.7085 213.017 34.5369C215.123 32.4699 217.949 31.4233 221.507 31.4233C225.065 31.4233 227.891 32.4568 229.997 34.5369C232.208 36.7085 233.307 39.7567 233.307 43.6552ZM226.112 43.6552C226.112 40.4762 225.929 38.213 225.549 36.8655C224.895 34.55 223.548 33.3987 221.507 33.3987C219.466 33.3987 218.119 34.55 217.465 36.8655C217.085 38.213 216.889 40.4762 216.889 43.6552C216.889 46.4547 217.072 48.4171 217.465 49.5552C218.119 51.5175 219.466 52.5118 221.507 52.5118C223.548 52.5118 224.895 51.5306 225.549 49.5552C225.929 48.4171 226.112 46.4417 226.112 43.6552Z" fill="white"/>
<path d="M262.31 54.7881H255.115V40.7509C255.115 38.6839 254.971 37.2318 254.696 36.3946C254.252 34.9817 253.31 34.2752 251.897 34.2752C250.131 34.2752 248.796 34.9032 247.881 36.1722C246.965 37.428 246.507 38.9979 246.507 40.8556V54.7881H239.312V38.6316C239.312 36.944 239.063 35.7928 238.566 35.191C238.069 34.5892 237.101 34.2883 235.688 34.2883C235.309 34.2491 235.126 34.0528 235.126 33.6604C235.126 33.3202 235.309 33.124 235.688 33.0979L246.507 31.1748V34.236C248.064 32.7185 250.497 31.9597 253.807 31.9597C256.528 31.9597 258.713 33.0324 260.335 35.1648C261.643 36.9309 262.297 38.8409 262.297 40.9079V54.7881H262.31Z" fill="white"/>
<path d="M307.051 46.1931C307.051 51.9231 301.858 54.7881 291.457 54.7881H281.044V28.0612C281.044 26.3736 280.795 25.2224 280.298 24.6206C279.801 24.0188 278.833 23.7179 277.42 23.7179C277.041 23.6787 276.858 23.4825 276.858 23.09C276.858 22.7499 277.041 22.5536 277.42 22.5275H292.125C295.683 22.5275 298.587 23.0115 300.824 23.9796C303.859 25.2878 305.377 27.394 305.377 30.2983C305.377 33.5426 302.839 36.0021 297.763 37.6504C303.938 38.7886 307.038 41.6405 307.038 46.1931H307.051ZM298.299 30.4945C298.299 26.6614 296.023 24.7514 291.457 24.7514H288.239V36.6169H290.986C295.853 36.6169 298.286 34.5761 298.286 30.5076L298.299 30.4945ZM299.908 45.3035C299.908 41.0256 297.318 38.8802 292.138 38.8802H288.252V52.0931H292.399C295.029 52.0931 296.926 51.5699 298.116 50.5102C299.307 49.4505 299.908 47.7237 299.908 45.3035Z" fill="white"/>
<path d="M330.769 31.842L322.279 54.7881C321.18 57.8231 320.055 60.0471 318.917 61.4731C317.295 63.5401 315.306 64.5735 312.964 64.5735H309.236L311.303 61.1068H314.822C316.379 61.1068 317.622 59.9032 318.55 57.483L319.95 53.9116L313.736 38.527C313.082 36.9048 312.559 35.8713 312.179 35.4134C311.565 34.6546 310.61 34.2753 309.328 34.2753C308.948 34.236 308.765 34.0398 308.765 33.6473C308.765 33.3072 308.948 33.111 309.328 33.0848L319.375 31.1617L324.189 43.0796L328.545 31.842H330.769Z" fill="white"/>
<path d="M353.872 54.7881H334.354V28.0612C334.354 26.3736 334.105 25.2224 333.608 24.6206C333.111 24.0188 332.143 23.7179 330.73 23.7179C330.351 23.6787 330.167 23.4825 330.167 23.09C330.167 22.7499 330.351 22.5536 330.73 22.5275H341.549V52.1062H353.872V54.8011V54.7881Z" fill="white"/>
<path d="M373.757 54.7881H366.562V53.2313C366.039 53.9901 365.555 54.5133 365.11 54.7881C364.456 55.1282 363.448 55.3114 362.101 55.3114C358.857 55.3114 356.266 54.0555 354.33 51.5306C352.564 49.2805 351.688 46.5463 351.688 43.2889C351.688 40.0314 352.643 37.428 354.566 35.2302C356.489 33.0324 358.948 31.9466 361.944 31.9466C364.116 31.9466 365.659 32.81 366.549 34.5369V32.4699L373.744 31.1748V54.7881H373.757ZM366.562 45.1073V43.2889C366.562 37.4542 365.542 34.5369 363.501 34.5369C360.387 34.5369 358.843 37.4542 358.843 43.2889C358.843 49.4375 360.4 52.5118 363.501 52.5118C365.542 52.5118 366.562 50.0392 366.562 45.1073Z" fill="white"/>
<path d="M405.298 54.7881H398.103V40.7509C398.103 38.6839 397.959 37.2318 397.684 36.3946C397.24 34.9817 396.298 34.2752 394.885 34.2752C393.119 34.2752 391.784 34.9032 390.869 36.1722C389.953 37.428 389.495 38.9979 389.495 40.8556V54.7881H382.3V38.6316C382.3 36.944 382.051 35.7928 381.554 35.191C381.057 34.5892 380.089 34.2883 378.676 34.2883C378.297 34.2491 378.114 34.0528 378.114 33.6604C378.114 33.3202 378.297 33.124 378.676 33.0979L389.495 31.1748V34.236C391.052 32.7185 393.485 31.9597 396.795 31.9597C399.516 31.9597 401.701 33.0324 403.323 35.1648C404.631 36.9309 405.285 38.8409 405.285 40.9079V54.7881H405.298Z" fill="white"/>
<path d="M431.096 40.4369L417.216 43.3935C417.216 45.5651 417.805 47.5013 418.982 49.1889C420.33 51.0858 422.07 52.0408 424.215 52.0408C426.361 52.0408 428.336 51.112 430.272 49.2412V52.551C428.31 54.3825 425.484 55.2983 421.834 55.2983C418.184 55.2983 415.424 54.2909 413.291 52.2632C411.146 50.2486 410.086 47.3705 410.086 43.6421C410.086 39.9136 411.172 36.6954 413.344 34.5238C415.45 32.4568 418.276 31.4102 421.834 31.4102C424.529 31.4102 426.74 32.3783 428.467 34.3145C429.984 36.0021 430.861 38.0429 431.109 40.4239L431.096 40.4369ZM426.282 39.5081C425.942 35.2302 424.451 33.0848 421.834 33.0848C418.969 33.0848 417.425 35.8582 417.229 41.4181L426.295 39.5081H426.282Z" fill="white"/>
<path d="M455.128 47.6845C455.128 50.314 454.029 52.2763 451.818 53.5845C449.882 54.7227 447.227 55.2983 443.838 55.2983C441.523 55.2983 438.815 54.9974 435.701 54.4218V51.3606C439.26 52.1586 442.033 52.551 444.035 52.551C447.214 52.551 448.796 51.8708 448.796 50.5364C448.796 49.7776 447.658 48.7965 445.382 47.5798C441.719 45.6829 439.6 44.5186 439.011 44.113C436.735 42.5563 435.597 40.9733 435.597 39.3511C435.597 37.0748 436.408 35.2957 438.03 34.0136C439.861 32.5615 442.556 31.842 446.115 31.842C448.077 31.842 450.497 32.1167 453.362 32.6662V35.5704C450.262 34.7724 447.684 34.3799 445.644 34.3799C444.741 34.3799 443.904 34.5631 443.106 34.9424C442.308 35.3218 441.915 35.8059 441.915 36.3946C441.915 37.0225 443.053 37.9513 445.33 39.1942C448.744 41.0649 450.877 42.2815 451.701 42.8702C453.977 44.5317 455.115 46.1277 455.115 47.6845H455.128Z" fill="white"/>
</g>
<defs>
<clipPath id="clip0_86_11">
<rect width="455.128" height="75" fill="white"/>
</clipPath>
</defs>
</svg>
